# xmcd
#
# Track frame offsets:
#	150
#	8379
#	27594
#	47032
#	67692
#	89996
#	113668
#	116388
#	136392
#	154646
#	178432
#	202521
#	222511
#	247130
#	250120
#	271650
#
# Disc length: 3761 seconds
#
# Revision: 2
# Processed by: cddbd v1.4b41PL1 Copyright (c) Steve Scherf et al.
# Submitted via: EZCDDA 4.3.2
#
DISCID=d80eaf10
DTITLE=Link - Sex Down
DYEAR=1900
DGENRE=
TTITLE0=Club Scene at Club GiGi's 
TTITLE1=D.A.N.C.E. With Me
TTITLE2=Whatcha Gone Do
TTITLE3=Gimmie Some
TTITLE4=I Really Wanna Sex Your Body
TTITLE5=Sex Down
TTITLE6=Sex-Lude
TTITLE7=911-0024
TTITLE8=Link's Messages
TTITLE9=All Night Freakin'
TTITLE10=Spill
TTITLE11=One Of A Kind Love
TTITLE12=I Don't Wanna See
TTITLE13=Don't Runaway (Prelude)
TTITLE14=Don't Runaway
TTITLE15=Thank You
EXTD=
EXTT0=
EXTT1=
EXTT2=
EXTT3=
EXTT4=
EXTT5=
EXTT6=
EXTT7=
EXTT8=
EXTT9=
EXTT10=
EXTT11=
EXTT12=
EXTT13=
EXTT14=
EXTT15=
PLAYORDER=
